<svg width="28" height="35" viewBox="0 0 28 35" fill="none" xmlns="http://www.w3.org/2000/svg">
<g clip-path="url(#clip0_401_313)">
<path d="M24.7187 0H3.28125C2.41129 0.000926472 1.57723 0.346926 0.962079 0.962079C0.346926 1.57723 0.000926472 2.41129 0 3.28125V24.7187C0 26.5282 1.47175 28 3.28125 28H12.25V31.5H5.25V35H22.75V31.5H15.75V28H24.7187C25.5887 27.9991 26.4228 27.6531 27.0379 27.0379C27.6531 26.4228 27.9991 25.5887 28 24.7187V3.28125C27.9991 2.41129 27.6531 1.57723 27.0379 0.962079C26.4228 0.346926 25.5887 0.000926472 24.7187 0ZM24.5 24.5H3.5V3.5H24.5V24.5Z" fill="#FF3838"/>
<path d="M14 21C17.8605 21 21 17.8605 21 14C21 10.1395 17.8605 7 14 7C10.1395 7 7 10.1395 7 14C7 17.8605 10.1395 21 14 21ZM14 10.5C15.9302 10.5 17.5 12.0697 17.5 14C17.5 15.9302 15.9302 17.5 14 17.5C12.0697 17.5 10.5 15.9302 10.5 14C10.5 12.0697 12.0697 10.5 14 10.5Z" fill="#FF3838"/>
</g>
<defs>
<clipPath id="clip0_401_313">
<rect width="28" height="35" fill="white"/>
</clipPath>
</defs>
</svg>
