<svg width="34" height="34" viewBox="0 0 34 34" fill="none" xmlns="http://www.w3.org/2000/svg">
<path d="M17 0C12.4913 0 8.1673 1.79107 4.97918 4.97918C1.79107 8.1673 0 12.4913 0 17C0.000116228 19.2325 0.439949 21.4431 1.29439 23.5056C2.14882 25.568 3.40113 27.442 4.97981 29.0206C6.55849 30.5991 8.43262 31.8512 10.4952 32.7054C12.5578 33.5596 14.7684 33.9992 17.0009 33.9991C19.2334 33.999 21.4439 33.5592 23.5064 32.7047C25.5689 31.8503 27.4429 30.598 29.0214 29.0193C30.6 27.4406 31.8521 25.5665 32.7063 23.5039C33.5605 21.4413 34.0001 19.2307 34 16.9982C34 7.61104 26.3872 0 17 0ZM17 30.4566C15.2326 30.4566 13.4826 30.1085 11.8497 29.4321C10.2169 28.7558 8.73324 27.7644 7.48352 26.5147C6.2338 25.265 5.24247 23.7814 4.56612 22.1485C3.88978 20.5157 3.54167 18.7656 3.54167 16.9982C3.54167 15.2309 3.88978 13.4808 4.56612 11.8479C5.24247 10.2151 6.2338 8.73147 7.48352 7.48175C8.73324 6.23203 10.2169 5.24069 11.8497 4.56435C13.4826 3.88801 15.2326 3.5399 17 3.5399V17L29.0275 10.9862C29.9678 12.8515 30.4578 14.9112 30.4583 17C30.4579 20.5691 29.0397 23.9918 26.5159 26.5153C23.992 29.0389 20.5691 30.4566 17 30.4566Z" fill="#8C2CAE"/>
</svg>
