<svg width="30" height="36" viewBox="0 0 30 36" fill="none" xmlns="http://www.w3.org/2000/svg">
<path d="M20.0013 0H10.0006V3.33354H20.0013V0ZM13.3342 21.668H16.6677V11.6674H13.3342V21.668ZM26.7184 10.6507L29.0852 8.28385C28.3685 7.4338 27.5851 6.63375 26.735 5.93371L24.3682 8.30052C21.7136 6.16426 18.4084 4.9998 15.0009 5.00031C6.71709 5.00031 0 11.7174 0 20.0013C0 28.2851 6.70042 35.0022 15.0009 35.0022C17.825 35.0037 20.592 34.2075 22.9833 32.7053C25.3747 31.2031 27.293 29.056 28.5175 26.5112C29.742 23.9665 30.2228 21.1276 29.9045 18.3216C29.5862 15.5155 28.4817 12.8565 26.7184 10.6507V10.6507ZM15.0009 31.6687C8.55054 31.6687 3.33354 26.4517 3.33354 20.0013C3.33354 13.5509 8.55054 8.33386 15.0009 8.33386C21.4514 8.33386 26.6683 13.5509 26.6683 20.0013C26.6683 26.4517 21.4514 31.6687 15.0009 31.6687Z" fill="#FF964E"/>
</svg>
