<svg width="8" height="8" viewBox="0 0 8 8" fill="none" xmlns="http://www.w3.org/2000/svg">
<path fill-rule="evenodd" clip-rule="evenodd" d="M4.00051 5.31488L6.58982 7.80986C6.84958 8.06209 7.01858 8.06467 7.28309 7.80986L7.8026 7.30917C8.05711 7.064 8.07436 6.90306 7.8026 6.64119L5.06128 4.0001L7.80285 1.35901C8.0596 1.11078 8.0646 0.94326 7.80285 0.690798L7.28334 0.190344C7.01383 -0.0694123 6.84733 -0.0574127 6.59007 0.190344L4.00051 2.68532L1.4112 0.190579C1.15394 -0.0571774 0.987436 -0.069177 0.717929 0.190579L0.198417 0.691033C-0.0635893 0.943496 -0.0588392 1.11102 0.198417 1.35925L2.93973 4.0001L0.198417 6.64119C-0.0733395 6.90306 -0.0588392 7.064 0.198417 7.30917L0.717679 7.80986C0.979936 8.06467 1.14894 8.06209 1.41095 7.80986L4.00051 5.31488Z" fill="#B5B5B5"/>
</svg>
