<svg width="30" height="36" viewBox="0 0 30 36" fill="none" xmlns="http://www.w3.org/2000/svg">
<path fill-rule="evenodd" clip-rule="evenodd" d="M0.00431319 10.067C0.00450072 9.23889 0.57891 8.22228 1.28965 7.79471L13.7149 0.32007C14.4247 -0.10694 15.5743 -0.10694 16.2854 0.32157L28.715 7.81046C29.425 8.23803 30.0002 9.25502 30 10.0867L29.9947 25.0148C29.9946 25.8442 29.4192 26.8648 28.7105 27.2941L16.2584 34.8338C15.5494 35.2632 14.4013 35.263 13.6911 34.8319L1.28272 27.2959C0.573847 26.8655 -0.00037488 25.8457 1.8363e-07 25.0172L0.00431319 10.0672V10.067ZM2.61775 8.85295L14.9637 15.7464L26.7343 8.94315L14.9438 2.01986L2.61757 8.85295H2.61775ZM1.82149 11.084C1.82149 11.3893 1.62177 24.56 1.62177 24.56C1.6154 24.9737 1.89688 25.4821 2.25319 25.6972L13.8074 32.67L13.9137 18.1526C13.9137 18.1526 1.82168 10.7785 1.82168 11.084H1.82149ZM16.094 32.6385L27.5169 25.3885C27.9542 25.111 28.3088 24.4668 28.3088 23.9485V11.0099L16.094 18.0448V32.6385Z" fill="#2A5F9E"/>
<path fill-rule="evenodd" clip-rule="evenodd" d="M5.60487 18.3539C4.7081 18.8719 3.51915 18.4917 2.94942 17.5051C2.37989 16.5185 2.64525 15.2988 3.54203 14.7811C4.43899 14.2631 5.62794 14.6432 6.19747 15.6298C6.76719 16.6164 6.50184 17.8361 5.60487 18.3539ZM11.6059 22.2921C10.7091 22.81 9.52016 22.4299 8.95044 21.4433C8.3809 20.4567 8.64626 19.237 9.54304 18.7192C10.44 18.2013 11.629 18.5814 12.1985 19.568C12.7682 20.5546 12.5028 21.7743 11.6059 22.2921ZM5.60487 25.2926C4.7081 25.8105 3.51915 25.4304 2.94942 24.4438C2.37989 23.4572 2.64525 22.2375 3.54203 21.7197C4.43899 21.2018 5.62794 21.5819 6.19747 22.5685C6.76719 23.5551 6.50184 24.7748 5.60487 25.2926ZM11.6059 29.2307C10.7091 29.7487 9.52016 29.3686 8.95044 28.382C8.3809 27.3954 8.64626 26.1757 9.54304 25.6579C10.44 25.1399 11.629 25.5201 12.1985 26.5067C12.7682 27.4933 12.5028 28.713 11.6059 29.2307ZM26.278 14.5935C25.381 14.0756 24.1923 14.4557 23.6225 15.4423C23.053 16.4289 23.3182 17.6486 24.2151 18.1664C25.1121 18.6843 26.3011 18.3042 26.8706 17.3176C27.4403 16.331 27.1749 15.1113 26.278 14.5935ZM23.2328 20.0319C22.3361 19.514 21.1471 19.8941 20.5774 20.8807C20.0079 21.8673 20.2732 23.087 21.17 23.6048C22.067 24.1228 23.2559 23.7426 23.8254 22.756C24.3952 21.7694 24.1298 20.5497 23.2328 20.0319ZM20.0448 25.2828C19.148 24.7649 17.9591 25.145 17.3894 26.1316C16.8198 27.1182 17.0852 28.3379 17.982 28.8557C18.8789 29.3736 20.0679 28.9935 20.6374 28.0069C21.2071 27.0203 20.9418 25.8006 20.0448 25.2828ZM15.1202 6.4856C13.9292 6.4856 12.9636 7.40919 12.9636 8.54844C12.9636 9.6877 13.9292 10.6113 15.1202 10.6113C16.3112 10.6113 17.2768 9.6877 17.2768 8.54844C17.2768 7.40919 16.3112 6.4856 15.1202 6.4856Z" fill="#2A5F9E"/>
</svg>
