<svg width="21" height="20" viewBox="0 0 21 20" fill="none" xmlns="http://www.w3.org/2000/svg">
<g clip-path="url(#clip0_401_403)">
<path d="M7.82422 18.8438V14.5312L4.60547 16.9062C5.51172 17.75 6.60547 18.4063 7.82422 18.8438Z" fill="#2A5F9E"/>
<path d="M14.0742 18.8438C15.293 18.4062 16.3867 17.75 17.293 16.9062L14.0742 14.5V18.8438Z" fill="#2A5F9E"/>
<path d="M2.10547 13.125C2.19922 13.4375 2.32422 13.7188 2.48047 14.0312L3.69922 13.125H2.10547Z" fill="#2A5F9E"/>
<path d="M18.1992 13.125L19.418 14.0312C19.543 13.75 19.668 13.4375 19.793 13.125H18.1992Z" fill="#2A5F9E"/>
<path d="M8.29297 11.875H1.76172C1.85547 12.3125 1.98047 12.7188 2.10547 13.125H3.69922L2.48047 14.0313C2.73047 14.5625 3.01172 15.0313 3.35547 15.5L6.57422 13.125H7.82422V13.75L4.16797 16.4375L4.60547 16.875L7.82422 14.5313V18.8438C8.23047 19 8.63672 19.0938 9.07422 19.1875V11.875H8.29297Z" fill="white"/>
<path d="M20.1367 11.875H12.8242V19.1875C13.2617 19.0938 13.668 18.9688 14.0742 18.8438V14.5313L17.293 16.875C17.7305 16.4688 18.1055 16.0313 18.4805 15.5625L15.1367 13.125H17.2617L19.168 14.5313C19.2617 14.375 19.3555 14.1875 19.418 14.0313L18.1992 13.125H19.793C19.918 12.7188 20.043 12.3125 20.1367 11.875Z" fill="white"/>
<path d="M3.35547 15.5C3.60547 15.8438 3.85547 16.1563 4.13672 16.4688L7.82422 13.7813V13.1562H6.57422L3.35547 15.5Z" fill="#ED4C5C"/>
<path d="M15.168 13.125L18.5117 15.5625C18.6367 15.4062 18.7305 15.25 18.8555 15.0938C18.8867 15.0625 18.8867 15.0312 18.918 15.0312C19.0117 14.875 19.1367 14.6875 19.2305 14.5313L17.2617 13.125H15.168Z" fill="#ED4C5C"/>
<path d="M14.0742 1.15625V5.46875L17.293 3.09375C16.3867 2.25 15.293 1.59375 14.0742 1.15625Z" fill="#2A5F9E"/>
<path d="M7.82422 1.15625C6.60547 1.59375 5.51172 2.25 4.60547 3.09375L7.82422 5.5V1.15625Z" fill="#2A5F9E"/>
<path d="M19.793 6.875C19.6992 6.5625 19.5742 6.28125 19.418 5.96875L18.1992 6.875H19.793Z" fill="#2A5F9E"/>
<path d="M3.69922 6.875L2.48047 5.96875C2.35547 6.28125 2.23047 6.5625 2.10547 6.875H3.69922Z" fill="#2A5F9E"/>
<path d="M13.6055 8.125H20.1055C20.0117 7.6875 19.8867 7.28125 19.7617 6.875H18.168L19.3867 5.96875C19.1367 5.4375 18.8555 4.96875 18.5117 4.5L15.3242 6.875H14.0742V6.25L17.7305 3.5625L17.293 3.125L14.0742 5.46875V1.15625C13.668 1 13.2617 0.90625 12.8242 0.8125V8.125H13.6055Z" fill="white"/>
<path d="M1.76172 8.125H9.07422V0.8125C8.63672 0.90625 8.23047 1.03125 7.82422 1.15625V5.46875L4.60547 3.125C4.16797 3.53125 3.79297 3.96875 3.41797 4.4375L6.76172 6.875H4.63672L2.73047 5.46875C2.63672 5.625 2.54297 5.8125 2.48047 5.96875L3.69922 6.875H2.10547C1.98047 7.28125 1.85547 7.6875 1.76172 8.125Z" fill="white"/>
<path d="M18.543 4.5C18.293 4.15625 18.043 3.84375 17.7617 3.53125L14.0742 6.21875V6.84375H15.3242L18.543 4.5Z" fill="#ED4C5C"/>
<path d="M6.73047 6.875L3.41797 4.4375C3.29297 4.59375 3.19922 4.75 3.07422 4.90625C3.04297 4.9375 3.04297 4.96875 3.01172 4.96875C2.91797 5.125 2.79297 5.3125 2.69922 5.46875L4.60547 6.875H6.73047Z" fill="#ED4C5C"/>
<path d="M20.1367 8.125H12.8242V0.8125C12.2305 0.6875 11.6055 0.625 10.9492 0.625C10.293 0.625 9.66797 0.6875 9.07422 0.8125V8.125H1.76172C1.63672 8.71875 1.57422 9.34375 1.57422 10C1.57422 10.6562 1.63672 11.2812 1.76172 11.875H9.07422V19.1875C9.66797 19.3125 10.293 19.375 10.9492 19.375C11.6055 19.375 12.2305 19.3125 12.8242 19.1875V11.875H20.1367C20.2617 11.2812 20.3242 10.6562 20.3242 10C20.3242 9.34375 20.2617 8.71875 20.1367 8.125Z" fill="#ED4C5C"/>
</g>
<defs>
<clipPath id="clip0_401_403">
<rect width="20" height="20" fill="white" transform="translate(0.949219)"/>
</clipPath>
</defs>
</svg>
