<svg width="19" height="19" viewBox="0 0 19 19" fill="none" xmlns="http://www.w3.org/2000/svg">
<g clip-path="url(#clip0_401_15)">
<path d="M6.53145 17.9016V13.8047L3.47363 16.0609C4.33457 16.8625 5.37363 17.4859 6.53145 17.9016Z" fill="#2A5F9E"/>
<path d="M12.4688 17.9015C13.6266 17.4858 14.6656 16.8624 15.5266 16.0608L12.4688 13.7749V17.9015Z" fill="#2A5F9E"/>
<path d="M1.09863 12.4688C1.1877 12.7656 1.30645 13.0328 1.45488 13.3297L2.6127 12.4688H1.09863Z" fill="#2A5F9E"/>
<path d="M16.3877 12.4688L17.5455 13.3297C17.6643 13.0625 17.783 12.7656 17.9018 12.4688H16.3877Z" fill="#2A5F9E"/>
<path d="M6.97666 11.2812H0.771973C0.861035 11.6969 0.979785 12.0828 1.09854 12.4688H2.6126L1.45479 13.3297C1.69229 13.8344 1.95947 14.2797 2.28604 14.725L5.34385 12.4688H6.53135V13.0625L3.05791 15.6156L3.47354 16.0313L6.53135 13.8047V17.9016C6.91728 18.05 7.30322 18.1391 7.71885 18.2281V11.2812H6.97666Z" fill="white"/>
<path d="M18.2281 11.2812H11.2812V18.2281C11.6969 18.1391 12.0828 18.0203 12.4688 17.9016V13.8047L15.5266 16.0313C15.9422 15.6453 16.2984 15.2297 16.6547 14.7844L13.4781 12.4688H15.4969L17.3078 13.8047C17.3969 13.6563 17.4859 13.4781 17.5453 13.3297L16.3875 12.4688H17.9016C18.0203 12.0828 18.1391 11.6969 18.2281 11.2812Z" fill="white"/>
<path d="M2.28613 14.7251C2.52363 15.0517 2.76113 15.3485 3.02832 15.6454L6.53145 13.0923V12.4985H5.34395L2.28613 14.7251Z" fill="#ED4C5C"/>
<path d="M13.5078 12.4688L16.6844 14.7844C16.8031 14.6359 16.8922 14.4875 17.0109 14.3391C17.0406 14.3094 17.0406 14.2797 17.0703 14.2797C17.1594 14.1312 17.2781 13.9531 17.3672 13.8047L15.4969 12.4688H13.5078Z" fill="#ED4C5C"/>
<path d="M12.4688 1.09863V5.19551L15.5266 2.93926C14.6656 2.1377 13.6266 1.51426 12.4688 1.09863Z" fill="#2A5F9E"/>
<path d="M6.53145 1.09863C5.37363 1.51426 4.33457 2.1377 3.47363 2.93926L6.53145 5.22519V1.09863Z" fill="#2A5F9E"/>
<path d="M17.9018 6.53135C17.8127 6.23447 17.6939 5.96729 17.5455 5.67041L16.3877 6.53135H17.9018Z" fill="#2A5F9E"/>
<path d="M2.6127 6.53135L1.45488 5.67041C1.33613 5.96729 1.21738 6.23447 1.09863 6.53135H2.6127Z" fill="#2A5F9E"/>
<path d="M12.0234 7.71885H18.1984C18.1094 7.30322 17.9906 6.91728 17.8719 6.53135H16.3578L17.5156 5.67041C17.2781 5.16572 17.0109 4.72041 16.6844 4.2751L13.6563 6.53135H12.4688V5.9376L15.9422 3.38447L15.5266 2.96885L12.4688 5.19541V1.09854C12.0828 0.950098 11.6969 0.861035 11.2812 0.771973V7.71885H12.0234Z" fill="white"/>
<path d="M0.771973 7.71885H7.71885V0.771973C7.30322 0.861035 6.91728 0.979785 6.53135 1.09854V5.19541L3.47354 2.96885C3.05791 3.35478 2.70166 3.77041 2.34541 4.21572L5.52197 6.53135H3.50322L1.69229 5.19541C1.60322 5.34385 1.51416 5.52197 1.45479 5.67041L2.6126 6.53135H1.09854C0.979785 6.91728 0.861035 7.30322 0.771973 7.71885Z" fill="white"/>
<path d="M16.7141 4.2748C16.4766 3.94824 16.2391 3.65137 15.9719 3.35449L12.4688 5.90762V6.50137H13.6562L16.7141 4.2748Z" fill="#ED4C5C"/>
<path d="M5.49228 6.53145L2.34541 4.21582C2.22666 4.36426 2.1376 4.5127 2.01885 4.66113C1.98916 4.69082 1.98916 4.72051 1.95947 4.72051C1.87041 4.86895 1.75166 5.04707 1.6626 5.19551L3.47353 6.53145H5.49228Z" fill="#ED4C5C"/>
<path d="M18.2281 7.71875H11.2812V0.771875C10.7172 0.653125 10.1234 0.59375 9.5 0.59375C8.87656 0.59375 8.28281 0.653125 7.71875 0.771875V7.71875H0.771875C0.653125 8.28281 0.59375 8.87656 0.59375 9.5C0.59375 10.1234 0.653125 10.7172 0.771875 11.2812H7.71875V18.2281C8.28281 18.3469 8.87656 18.4062 9.5 18.4062C10.1234 18.4062 10.7172 18.3469 11.2812 18.2281V11.2812H18.2281C18.3469 10.7172 18.4062 10.1234 18.4062 9.5C18.4062 8.87656 18.3469 8.28281 18.2281 7.71875Z" fill="#ED4C5C"/>
</g>
<defs>
<clipPath id="clip0_401_15">
<rect width="19" height="19" fill="white"/>
</clipPath>
</defs>
</svg>
