<svg width="28" height="28" viewBox="0 0 28 28" fill="none" xmlns="http://www.w3.org/2000/svg">
<g clip-path="url(#clip0_401_430)" filter="url(#filter0_d_401_430)">
<path d="M4.54297 10C4.54297 14.0938 7.16797 17.5625 10.793 18.8438V1.15625C7.16797 2.4375 4.54297 5.90625 4.54297 10Z" fill="#428BC1"/>
<path d="M23.293 10C23.293 5.90625 20.6992 2.4375 17.043 1.15625V18.8438C20.6992 17.5625 23.293 14.0938 23.293 10Z" fill="#ED4C5C"/>
<path d="M10.793 18.8438C11.7617 19.1875 12.8242 19.375 13.918 19.375C15.0117 19.375 16.0742 19.1875 17.043 18.8438V1.15625C16.0742 0.8125 15.043 0.625 13.918 0.625C12.793 0.625 11.7617 0.8125 10.793 1.15625V18.8438Z" fill="white"/>
</g>
<defs>
<filter id="filter0_d_401_430" x="-0.0507812" y="0" width="28" height="28" filterUnits="userSpaceOnUse" color-interpolation-filters="sRGB">
<feFlood flood-opacity="0" result="BackgroundImageFix"/>
<feColorMatrix in="SourceAlpha" type="matrix" values="0 0 0 0 0 0 0 0 0 0 0 0 0 0 0 0 0 0 127 0" result="hardAlpha"/>
<feOffset dy="4"/>
<feGaussianBlur stdDeviation="2"/>
<feComposite in2="hardAlpha" operator="out"/>
<feColorMatrix type="matrix" values="0 0 0 0 0 0 0 0 0 0 0 0 0 0 0 0 0 0 0.25 0"/>
<feBlend mode="normal" in2="BackgroundImageFix" result="effect1_dropShadow_401_430"/>
<feBlend mode="normal" in="SourceGraphic" in2="effect1_dropShadow_401_430" result="shape"/>
</filter>
<clipPath id="clip0_401_430">
<rect width="20" height="20" fill="white" transform="translate(3.94922)"/>
</clipPath>
</defs>
</svg>
