<svg width="21" height="20" viewBox="0 0 21 20" fill="none" xmlns="http://www.w3.org/2000/svg">
<g clip-path="url(#clip0_401_499)">
<path d="M10.918 0.625C6.82422 0.625 3.35547 3.25 2.07422 6.875H19.7617C18.4805 3.25 15.0117 0.625 10.918 0.625Z" fill="#3E4347"/>
<path d="M10.918 19.375C15.0117 19.375 18.4805 16.7812 19.7617 13.125H2.07422C3.35547 16.7812 6.82422 19.375 10.918 19.375Z" fill="#FFE62E"/>
<path d="M2.07422 6.875C1.73047 7.84375 1.54297 8.90625 1.54297 10C1.54297 11.0938 1.73047 12.1562 2.07422 13.125H19.7617C20.1055 12.1562 20.293 11.0938 20.293 10C20.293 8.90625 20.1055 7.84375 19.7617 6.875H2.07422Z" fill="#ED4C5C"/>
</g>
<defs>
<clipPath id="clip0_401_499">
<rect width="20" height="20" fill="white" transform="translate(0.949219)"/>
</clipPath>
</defs>
</svg>
