<svg width="35" height="35" viewBox="0 0 35 35" fill="none" xmlns="http://www.w3.org/2000/svg">
<circle cx="17.5" cy="17.5" r="17.5" fill="#E9E9E9"/>
<path d="M18.2862 9.85H18.2862C16.2017 9.85 14.2017 10.655 12.7265 12.0891C11.2876 13.4881 10.4628 15.3741 10.423 17.35H8H7.63052L7.89544 17.6076L11.3242 20.9409L11.4287 21.0425L11.5333 20.9409L14.962 17.6076L15.2269 17.35H14.8574H12.4379C12.5195 14.2811 15.0995 11.8167 18.2862 11.8167C21.5246 11.8167 24.1364 14.3618 24.1364 17.5V17.5002C24.1376 18.5432 23.843 19.5667 23.2846 20.4581C22.7263 21.3496 21.9256 22.0748 20.9701 22.5536C20.0146 23.0323 18.9415 23.2459 17.8689 23.1705C16.7963 23.0952 15.7661 22.7339 14.8916 22.1268L14.7893 22.0558L14.7007 22.1432L13.4835 23.3432L13.3591 23.4658L13.4991 23.5702C14.4907 24.3099 15.6489 24.809 16.8779 25.0265C18.1068 25.2439 19.3714 25.1735 20.5669 24.821C21.7623 24.4685 22.8546 23.844 23.7529 22.9989C24.6513 22.1538 25.3298 21.1123 25.732 19.9607C26.1342 18.8091 26.2484 17.5807 26.0649 16.3775C25.8814 15.1742 25.4056 14.0312 24.6773 13.0429C23.949 12.0547 22.9893 11.2499 21.8779 10.6948C20.7665 10.1396 19.5353 9.85012 18.2862 9.85ZM20.1505 17.5C20.1505 16.4965 19.3079 15.6833 18.2862 15.6833C17.2644 15.6833 16.4218 16.4965 16.4218 17.5C16.4218 18.5035 17.2644 19.3167 18.2862 19.3167C19.3079 19.3167 20.1505 18.5035 20.1505 17.5Z" fill="#B6B6B6" stroke="#B6B6B6" stroke-width="0.3"/>
<circle cx="18.5" cy="17.5" r="2.5" fill="#E9E9E9"/>
</svg>
