<svg width="17" height="20" viewBox="0 0 17 20" fill="none" xmlns="http://www.w3.org/2000/svg">
<path d="M1.94922 20C1.684 20 1.42965 19.8946 1.24211 19.7071C1.05458 19.5196 0.949219 19.2652 0.949219 19V1C0.949219 0.734784 1.05458 0.48043 1.24211 0.292893C1.42965 0.105357 1.684 0 1.94922 0H15.9492C16.2144 0 16.4688 0.105357 16.6563 0.292893C16.8439 0.48043 16.9492 0.734784 16.9492 1V19C16.9492 19.2652 16.8439 19.5196 16.6563 19.7071C16.4688 19.8946 16.2144 20 15.9492 20H1.94922ZM11.9492 14L16.9492 10L11.9492 6V9H5.94922V11H11.9492V14Z" fill="#797979"/>
</svg>
