<svg width="21" height="20" viewBox="0 0 21 20" fill="none" xmlns="http://www.w3.org/2000/svg">
<g clip-path="url(#clip0_401_436)">
<path d="M10.9492 0.625C6.85547 0.625 3.38672 3.21875 2.10547 6.875H19.793C18.5117 3.21875 15.043 0.625 10.9492 0.625Z" fill="#ED4C5C"/>
<path d="M10.9492 19.375C15.043 19.375 18.5117 16.7812 19.793 13.125H2.10547C3.38672 16.7812 6.85547 19.375 10.9492 19.375Z" fill="#428BC1"/>
<path d="M2.10547 6.875C1.76172 7.84375 1.57422 8.90625 1.57422 10C1.57422 11.0938 1.76172 12.1562 2.10547 13.125H19.793C20.1367 12.1562 20.3242 11.0938 20.3242 10C20.3242 8.90625 20.1367 7.84375 19.793 6.875H2.10547Z" fill="white"/>
</g>
<defs>
<clipPath id="clip0_401_436">
<rect width="20" height="20" fill="white" transform="translate(0.949219)"/>
</clipPath>
</defs>
</svg>
