<svg width="15" height="19" viewBox="0 0 15 19" fill="none" xmlns="http://www.w3.org/2000/svg">
<path d="M7.5 18.2812C8.53125 18.2812 9.375 17.4375 9.375 16.4062H5.625C5.625 17.4375 6.46875 18.2812 7.5 18.2812ZM13.125 12.6562V7.96875C13.125 5.09063 11.5969 2.68125 8.90625 2.04375V1.40625C8.90625 0.628125 8.27812 0 7.5 0C6.72188 0 6.09375 0.628125 6.09375 1.40625V2.04375C3.4125 2.68125 1.875 5.08125 1.875 7.96875V12.6562L0 14.5312V15.4688H15V14.5312L13.125 12.6562ZM11.25 13.5938H3.75V7.96875C3.75 5.64375 5.16563 3.75 7.5 3.75C9.83438 3.75 11.25 5.64375 11.25 7.96875V13.5938Z" fill="#A4A4A4"/>
</svg>
