<svg width="18" height="18" viewBox="0 0 18 18" fill="none" xmlns="http://www.w3.org/2000/svg">
<g clip-path="url(#clip0_401_192)">
<path d="M8.99408 1.092C7.50008 1.092 6.33958 0.546 5.80908 0V7.646H12.1796V0C11.6486 0.546 10.5001 1.092 8.99408 1.092Z" fill="#994308"/>
<path d="M14.4545 3.979V1.584C14.4545 1.0425 14.1175 0.571 13.637 0.4395L12.0275 0L8.994 7.2945L5.9605 0L4.351 0.4395C3.8705 0.571 3.5335 1.043 3.5335 1.584V3.9785C3.5335 5.81 2.1755 7.2945 0.5 7.2945V16.8125C0.5 17.4155 0.9755 17.905 1.5615 17.905H7.477C8.3145 17.905 8.994 17.1625 8.994 16.247C8.994 17.1625 9.673 17.905 10.511 17.905H16.4265C17.013 17.905 17.4885 17.416 17.4885 16.8125V7.2945C15.8125 7.2945 14.4545 5.81 14.4545 3.979Z" fill="#EB7421"/>
<path d="M0.5 14.5H8.994V16H0.5V14.5ZM17.488 16H8.994V14.5H17.488V16ZM0.5 11H8.994V12.5H0.5V11ZM17.488 12.5H8.994V11H17.488V12.5Z" fill="#FCFB65"/>
<path d="M6 11.5V0.095L5.9605 0L4.5 0.399V11.5H6ZM13.5 11.5V0.4025L12.0275 0L12 0.0665V11.5H13.5Z" fill="#FCFB65"/>
<path d="M8.46289 5.5V17.4975C8.63202 17.3363 8.76638 17.1422 8.8577 16.9272C8.94902 16.7121 8.99537 16.4806 8.99389 16.247C8.99389 16.7365 9.19139 17.1715 9.49989 17.475V5.5H8.46289Z" fill="#994308"/>
</g>
<defs>
<clipPath id="clip0_401_192">
<rect width="18" height="18" fill="white"/>
</clipPath>
</defs>
</svg>
