<svg width="17" height="17" viewBox="0 0 17 17" fill="none" xmlns="http://www.w3.org/2000/svg">
<path d="M16.7513 6.79072L14.9629 6.25686C14.8393 5.82514 14.6692 5.40808 14.4558 5.01298L15.3313 3.37405C15.3641 3.31218 15.3762 3.24137 15.3656 3.17213C15.355 3.10289 15.3224 3.0389 15.2725 2.98967L13.9966 1.70842C13.9474 1.65859 13.8834 1.62597 13.8142 1.61539C13.7449 1.60481 13.6741 1.61684 13.6123 1.64969L11.984 2.51988C11.585 2.29601 11.1625 2.11697 10.7241 1.98602L10.1902 0.218962C10.1677 0.153841 10.125 0.0975631 10.0684 0.0582302C10.0118 0.0188973 9.94418 -0.00146236 9.87528 8.17699e-05H8.07084C8.00152 0.000404525 7.93411 0.0228424 7.87842 0.0641301C7.82273 0.105418 7.78166 0.1634 7.76121 0.229639L7.22735 1.99136C6.78533 2.12161 6.35918 2.30066 5.95678 2.52522L4.35521 1.66037C4.29335 1.62752 4.22254 1.61549 4.1533 1.62607C4.08406 1.63665 4.02007 1.66927 3.97084 1.71909L2.67357 2.98433C2.62375 3.03356 2.59112 3.09755 2.58054 3.16679C2.56997 3.23604 2.58199 3.30684 2.61485 3.36871L3.47969 4.97027C3.2555 5.37098 3.07646 5.79532 2.94584 6.23551L1.17878 6.76936C1.11254 6.78982 1.05455 6.83088 1.01327 6.88657C0.971979 6.94226 0.949542 7.00967 0.949219 7.079V8.88343C0.949542 8.95275 0.971979 9.02017 1.01327 9.07586C1.05455 9.13155 1.11254 9.17261 1.17878 9.19306L2.95651 9.72692C3.08856 10.1598 3.26758 10.5769 3.49037 10.9708L2.61485 12.6471C2.58199 12.709 2.56997 12.7798 2.58054 12.849C2.59112 12.9183 2.62375 12.9822 2.67357 13.0315L3.94948 14.3074C3.99872 14.3572 4.0627 14.3898 4.13195 14.4004C4.20119 14.411 4.272 14.399 4.33386 14.3661L5.98347 13.4853C6.3737 13.6958 6.78533 13.8641 7.21134 13.9871L7.74519 15.7862C7.76565 15.8524 7.80671 15.9104 7.8624 15.9517C7.91809 15.993 7.9855 16.0154 8.05483 16.0157H9.85926C9.92858 16.0154 9.996 15.993 10.0517 15.9517C10.1074 15.9104 10.1484 15.8524 10.1689 15.7862L10.7028 13.9817C11.1251 13.8581 11.5331 13.6899 11.9199 13.4799L13.5802 14.3661C13.6421 14.399 13.7129 14.411 13.7821 14.4004C13.8514 14.3898 13.9154 14.3572 13.9646 14.3074L15.2405 13.0315C15.2903 12.9822 15.323 12.9183 15.3335 12.849C15.3441 12.7798 15.3321 12.709 15.2992 12.6471L14.413 10.9922C14.6252 10.6039 14.7952 10.194 14.9202 9.76963L16.7193 9.23577C16.7855 9.21532 16.8435 9.17426 16.8848 9.11857C16.9261 9.06287 16.9485 8.99546 16.9489 8.92614V7.10569C16.952 7.03931 16.9348 6.97355 16.8995 6.91725C16.8641 6.86094 16.8125 6.81679 16.7513 6.79072ZM8.97306 10.9441C8.39233 10.9441 7.82465 10.7719 7.34179 10.4493C6.85894 10.1266 6.4826 9.66806 6.26036 9.13154C6.03813 8.59502 5.97998 8.00465 6.09328 7.43508C6.20657 6.86552 6.48622 6.34233 6.89685 5.9317C7.30749 5.52106 7.83067 5.24142 8.40024 5.12812C8.9698 5.01483 9.56018 5.07298 10.0967 5.29521C10.6332 5.51744 11.0918 5.89378 11.4144 6.37664C11.7371 6.8595 11.9093 7.42718 11.9093 8.00791C11.9093 8.78664 11.5999 9.53347 11.0493 10.0841C10.4986 10.6348 9.75179 10.9441 8.97306 10.9441Z" fill="#797979"/>
</svg>
