<svg width="21" height="20" viewBox="0 0 21 20" fill="none" xmlns="http://www.w3.org/2000/svg">
<g clip-path="url(#clip0_401_442)">
<path d="M1.57422 10C1.57422 11.8438 2.10547 13.5625 3.01172 15H18.8555C19.7617 13.5625 20.293 11.8438 20.293 10C20.293 8.15625 19.7617 6.4375 18.8555 5H3.01172C2.10547 6.4375 1.57422 8.15625 1.57422 10Z" fill="#FFCE31"/>
<path d="M18.8867 5C17.2305 2.375 14.293 0.625 10.9492 0.625C7.60547 0.625 4.66797 2.375 3.01172 5H18.8867Z" fill="#ED4C5C"/>
<path d="M3.01172 15C4.66797 17.625 7.60547 19.375 10.9492 19.375C14.293 19.375 17.2305 17.625 18.8867 15H3.01172Z" fill="#ED4C5C"/>
<path d="M3.82422 8.96875H4.82422V9.53125H3.82422V8.96875Z" fill="#C8B100"/>
<path d="M3.82422 13.0938H4.85547V13.625H3.82422V13.0938Z" fill="#C8B100"/>
<path d="M3.73047 12.2188C3.63672 12.2812 3.57422 12.3438 3.57422 12.375C3.57422 12.4062 3.60547 12.4375 3.66797 12.4688C3.73047 12.5 3.79297 12.5625 3.76172 12.625C3.82422 12.5625 3.85547 12.5 3.85547 12.4375C3.85547 12.3438 3.79297 12.25 3.73047 12.2188Z" fill="#ED4C5C"/>
<path d="M3.98047 9.53125H4.69922V13.0938H3.98047V9.53125Z" fill="white"/>
<path d="M5.44909 10.8438C5.29284 10.7813 5.01159 10.7188 4.69909 10.7188C4.60534 10.7188 4.48034 10.7188 4.35534 10.75C3.91784 10.8125 3.57409 11 3.60534 11.125L3.44909 10.7813C3.41784 10.625 3.79284 10.4375 4.26159 10.3437C4.41784 10.3125 4.57409 10.3125 4.69909 10.3125C5.01159 10.3125 5.29284 10.3437 5.44909 10.4062V10.8438Z" fill="#ED4C5C"/>
<path d="M3.98047 11.3125C3.79297 11.3125 3.63672 11.25 3.63672 11.1563C3.63672 11.0938 3.69922 11 3.82422 10.9375H4.01172L3.98047 11.3125Z" fill="#ED4C5C"/>
<path d="M4.69922 11.0312C4.82422 11.0625 4.91797 11.0937 4.98047 11.125C5.01172 11.1562 4.88672 11.2813 4.69922 11.375V11.0312Z" fill="#ED4C5C"/>
<path d="M3.51177 12C3.48052 11.9375 3.69927 11.8125 3.98052 11.7188C4.10552 11.6875 4.19927 11.625 4.35552 11.5625C4.73052 11.4063 5.04302 11.1875 4.98052 11.125L5.04302 11.5C5.07427 11.5625 4.82427 11.75 4.44927 11.9375C4.32427 12 4.10552 12.0938 3.98052 12.125C3.76177 12.1875 3.57427 12.3125 3.57427 12.3438L3.51177 12Z" fill="#ED4C5C"/>
<path d="M10.543 8.96875H11.543V9.53125H10.543V8.96875Z" fill="#C8B100"/>
<path d="M10.5117 13.0938H11.543V13.625H10.5117V13.0938Z" fill="#C8B100"/>
<path d="M11.6367 12.2188C11.7305 12.2813 11.793 12.3438 11.793 12.375C11.793 12.4063 11.7617 12.4375 11.6992 12.4688C11.6367 12.5313 11.5742 12.625 11.6055 12.6563C11.543 12.5938 11.5117 12.5313 11.5117 12.4688C11.5117 12.3438 11.5742 12.25 11.6367 12.2188Z" fill="#ED4C5C"/>
<path d="M10.668 9.53125H11.3867V13.0938H10.668V9.53125Z" fill="white"/>
<path d="M9.91797 10.8438C10.0742 10.7813 10.3555 10.7188 10.668 10.7188C10.7617 10.7188 10.8867 10.7188 11.0117 10.75C11.4492 10.8125 11.793 11 11.7617 11.125L11.918 10.75C11.9492 10.5938 11.5742 10.4063 11.1055 10.3125H10.668C10.3555 10.3125 10.0742 10.3437 9.91797 10.4062V10.8438Z" fill="#ED4C5C"/>
<path d="M11.3867 11.3125C11.5742 11.3125 11.7305 11.25 11.7305 11.1563C11.7305 11.0938 11.668 11 11.543 10.9375H11.3555L11.3867 11.3125Z" fill="#ED4C5C"/>
<path d="M10.6679 11.0312C10.5429 11.0625 10.4491 11.0937 10.3866 11.125C10.3554 11.1562 10.4804 11.2813 10.6679 11.375V11.0312Z" fill="#ED4C5C"/>
<path d="M11.8557 12C11.8869 11.9375 11.6682 11.8125 11.3869 11.7188C11.2619 11.6875 11.1682 11.625 11.0119 11.5625C10.6369 11.4063 10.3244 11.1875 10.3869 11.125L10.3244 11.5C10.2932 11.5625 10.5432 11.75 10.9182 11.9375C11.0432 12 11.2619 12.0938 11.3869 12.125C11.6057 12.1875 11.7932 12.3438 11.7619 12.375L11.8557 12Z" fill="#ED4C5C"/>
<path d="M7.66797 6.96875C8.26172 6.96875 9.48047 7.09375 9.91797 7.53125C9.44922 8.65625 8.69922 8.1875 7.66797 8.1875C6.66797 8.1875 5.88672 8.65625 5.41797 7.53125C5.85547 7.09375 7.04297 6.96875 7.66797 6.96875Z" fill="#ED4C5C"/>
<path d="M9.19922 8.21875C8.82422 8 8.26172 7.96875 7.66797 7.96875C7.07422 7.96875 6.51172 8.03125 6.13672 8.21875L6.26172 8.75C6.60547 8.84375 7.10547 8.90625 7.66797 8.90625C8.23047 8.90625 8.69922 8.84375 9.07422 8.75L9.19922 8.21875Z" fill="#C8B100"/>
<path d="M9.73047 6.875C9.60547 6.78125 9.35547 6.6875 9.13672 6.6875C9.04297 6.6875 8.94922 6.6875 8.85547 6.71875C8.85547 6.71875 8.66797 6.46875 8.23047 6.46875C8.07422 6.46875 7.94922 6.5 7.82422 6.5625V6.53125C7.79297 6.46875 7.73047 6.40625 7.66797 6.40625C7.60547 6.40625 7.51172 6.5 7.51172 6.5625V6.59375C7.38672 6.53125 7.26172 6.5 7.10547 6.5C6.66797 6.5 6.48047 6.78125 6.48047 6.75C6.38672 6.71875 6.29297 6.71875 6.19922 6.71875C4.76172 6.71875 5.48047 7.6875 5.48047 7.6875L5.63672 7.5C5.29297 7.0625 5.60547 6.8125 6.23047 6.8125C6.32422 6.8125 6.38672 6.8125 6.44922 6.84375C6.23047 7.15625 6.63672 7.4375 6.63672 7.4375L6.73047 7.28125C6.51172 7.125 6.48047 6.59375 7.10547 6.59375C7.26172 6.59375 7.38672 6.625 7.51172 6.71875C7.51172 6.75 7.48047 7.1875 7.44922 7.25L7.69922 7.46875L7.94922 7.25C7.91797 7.15625 7.88672 6.75 7.88672 6.71875C7.98047 6.65625 8.13672 6.59375 8.29297 6.59375C8.94922 6.59375 8.94922 7.125 8.66797 7.28125L8.76172 7.4375C8.76172 7.4375 9.10547 7.15625 8.94922 6.84375C9.01172 6.84375 9.10547 6.8125 9.16797 6.8125C9.91797 6.8125 9.94922 7.375 9.76172 7.5L9.88672 7.6875C9.82422 7.6875 10.168 7.25 9.73047 6.875Z" fill="#C8B100"/>
<path d="M7.48047 6.28125C7.48047 6.1875 7.57422 6.09375 7.66797 6.09375C7.79297 6.09375 7.85547 6.1875 7.85547 6.28125C7.85547 6.375 7.76172 6.46875 7.66797 6.46875C7.57422 6.46875 7.48047 6.375 7.48047 6.28125Z" fill="#005BBF"/>
<path d="M7.66797 8.84375C7.16797 8.84375 6.73047 8.78125 6.38672 8.6875C6.73047 8.59375 7.16797 8.53125 7.66797 8.53125C8.16797 8.53125 8.60547 8.59375 8.94922 8.6875C8.63672 8.78125 8.16797 8.84375 7.66797 8.84375Z" fill="#ED4C5C"/>
<path d="M7.69922 14.25C7.10547 14.25 6.54297 14.0938 6.04297 13.875C5.66797 13.6875 5.44922 13.3438 5.44922 12.9375V11.4375H9.94922V12.9375C9.94922 13.3438 9.69922 13.7188 9.35547 13.875C8.85547 14.125 8.29297 14.25 7.69922 14.25Z" fill="white"/>
<path d="M7.66797 8.9375H9.91797V11.4375H7.66797V8.9375Z" fill="white"/>
<path d="M7.69922 12.9375C7.69922 13.5313 7.19922 14 6.57422 14C5.94922 14 5.44922 13.5313 5.44922 12.9375V11.4375H7.69922V12.9375Z" fill="#ED4C5C"/>
<path d="M5.91797 13.8125C5.98047 13.8437 6.07422 13.9062 6.19922 13.9375V11.375H5.94922L5.91797 13.8125Z" fill="#C8B100"/>
<path d="M5.41797 12.9062C5.41797 13.2187 5.54297 13.4687 5.66797 13.5937V11.375H5.41797V12.9062Z" fill="#C8B100"/>
<path d="M6.41797 14H6.66797V11.375H6.41797V14Z" fill="#C7B500"/>
<path d="M6.91797 13.9375C7.01172 13.9062 7.13672 13.8437 7.19922 13.8125V11.375H6.94922L6.91797 13.9375Z" fill="#C8B100"/>
<path d="M5.41797 8.9375H7.66797V11.4375H5.41797V8.9375Z" fill="#ED4C5C"/>
<path d="M7.44922 13.5938C7.57422 13.5 7.66797 13.2813 7.69922 13.0313V11.4062H7.44922V13.5938Z" fill="#C8B100"/>
<path d="M9.94922 11.4375V12.9375C9.94922 13.5313 9.44922 14 8.82422 14C8.19922 14 7.69922 13.5313 7.69922 12.9375V11.4375H9.94922Z" fill="#ED4C5C"/>
<path d="M9.13688 9.37503C9.23063 9.56253 9.23063 10.0313 8.94938 9.93753C9.01188 9.96878 9.04313 10.1875 9.13688 10.3125C9.29313 10.5 9.48063 10.3438 9.44938 10.125C9.38688 9.78128 9.41813 9.56253 9.48063 9.21878C9.48063 9.25003 9.63688 9.25003 9.69938 9.18753C9.66813 9.28128 9.63688 9.40628 9.69938 9.40628C9.63688 9.50003 9.48063 9.65628 9.44938 9.75003C9.41813 9.96878 9.76188 10.375 9.38688 10.4688C9.13688 10.5313 9.29313 10.7188 9.38688 10.8125C9.38688 10.8125 9.26188 11.2188 9.32438 11.1875C9.07438 11.2813 9.13688 11.0625 9.13688 11.0625C9.26188 10.6875 8.91813 10.6563 8.94938 10.5938C8.63688 10.5625 8.98063 10.875 8.69938 10.875C8.63688 10.875 8.51188 10.9375 8.51188 10.9375C8.16813 10.9063 8.35563 10.5938 8.48063 10.625C8.57438 10.6563 8.66813 10.8125 8.66813 10.5938C8.66813 10.5938 8.51188 10.3438 8.91813 10.3438C8.76188 10.3438 8.66813 10.2188 8.60563 10.0625C8.54313 10.0938 8.44938 10.25 8.10563 10.2813C8.10563 10.2813 8.01188 9.93753 8.10563 10C8.23063 10.0625 8.29313 10.0625 8.41813 9.93753C8.35563 9.84378 7.98063 9.71878 8.04313 9.50003C8.04313 9.43753 8.23063 9.34378 8.23063 9.34378C8.19938 9.50003 8.29313 9.65628 8.48063 9.65628C8.73063 9.68753 8.63688 9.59378 8.66813 9.53128C8.69938 9.46878 8.88688 9.56253 8.82438 9.40628C8.82438 9.37503 8.60563 9.34378 8.66813 9.25003C8.79313 9.09378 8.98063 9.21878 9.13688 9.37503Z" fill="#ED4C5C"/>
<path d="M7.69922 13.9375L7.63672 13.7812L7.69922 13.5938L7.76172 13.7812L7.69922 13.9375Z" fill="#ED4C5C"/>
<path d="M6.10547 9.46875V9.625H6.16797V9.75H6.01172V10.0625H6.10547V10.75H5.91797V11.0938H7.19922V10.75H7.04297V10.0625H7.10547V9.75H6.94922V9.625H7.04297V9.46875H6.73047V9.625H6.79297V9.75H6.63672V9.375H6.73047V9.21875H6.38672V9.375H6.48047V9.75H6.32422V9.625H6.38672V9.46875H6.10547Z" fill="#C8B100"/>
<path d="M9.63672 13.3125V11.75H8.01172V13.3125L8.76172 13.6563H8.85547L9.63672 13.3125ZM8.76172 11.875V12.4063L8.23047 11.875H8.76172ZM8.10547 11.9063L8.73047 12.5313L8.10547 13.1563V11.9063ZM8.16797 13.2813L8.76172 12.6875V13.5625L8.16797 13.2813ZM8.85547 13.5313V12.6563L9.44922 13.25L8.85547 13.5313ZM9.51172 13.1563L8.88672 12.5313L9.51172 11.9063V13.1563ZM8.85547 11.875H9.38672L8.85547 12.4063V11.875Z" fill="#C8B100"/>
<path d="M6.94922 11.4062C6.94922 10.9375 7.26172 10.5938 7.66797 10.5938C8.07422 10.5938 8.38672 10.9687 8.38672 11.4062C8.38672 11.8437 8.07422 12.2187 7.66797 12.2187C7.26172 12.2187 6.94922 11.875 6.94922 11.4062Z" fill="#ED4C5C"/>
<path d="M7.16797 11.4063C7.16797 11.0625 7.38672 10.8125 7.66797 10.8125C7.94922 10.8125 8.16797 11.0938 8.16797 11.4063C8.16797 11.75 7.94922 12 7.66797 12C7.41797 12.0313 7.16797 11.75 7.16797 11.4063Z" fill="#005BBF"/>
<path d="M7.44922 11L7.32422 11.3437L7.41797 11.375L7.35547 11.5H7.54297L7.48047 11.375L7.57422 11.3437L7.44922 11Z" fill="#C8B100"/>
<path d="M7.91797 11L7.79297 11.3437L7.88672 11.375L7.82422 11.5H8.01172L7.98047 11.375L8.07422 11.3437L7.91797 11Z" fill="#C8B100"/>
<path d="M7.69922 11.4062L7.54297 11.75L7.63672 11.7813L7.60547 11.9062H7.76172L7.73047 11.7813L7.82422 11.75L7.69922 11.4062Z" fill="#C8B100"/>
</g>
<defs>
<clipPath id="clip0_401_442">
<rect width="20" height="20" fill="white" transform="translate(0.949219)"/>
</clipPath>
</defs>
</svg>
